<?xml version="1.0" standalone="no"?>
<!DOCTYPE svg PUBLIC "-//W3C//DTD SVG 20010904//EN"
 "http://www.w3.org/TR/2001/REC-SVG-20010904/DTD/svg10.dtd">
<svg version="1.0" xmlns="http://www.w3.org/2000/svg"
 width="799.000000pt" height="255.000000pt" viewBox="0 0 799.000000 255.000000"
 preserveAspectRatio="xMidYMid meet">

<g transform="translate(0.000000,255.000000) scale(0.100000,-0.100000)"
fill="#000000" stroke="none">
<path d="M7055 2361 c-16 -10 -75 -65 -130 -121 -55 -56 -112 -108 -127 -116
-21 -11 -71 -14 -211 -14 l-184 0 -39 -29 c-21 -15 -103 -93 -181 -173 -151
-154 -150 -152 -156 -267 l-2 -54 -273 -91 c-181 -61 -282 -99 -297 -114 -43
-41 -48 -217 -8 -270 22 -29 165 -82 223 -82 20 0 103 23 185 50 82 28 155 50
162 50 9 0 13 -20 13 -73 0 -51 5 -80 16 -96 16 -22 14 -25 -124 -164 -77 -78
-145 -155 -151 -170 -6 -16 -11 -63 -11 -106 0 -106 13 -121 133 -160 59 -19
103 -27 122 -24 22 4 77 52 201 174 93 93 177 169 185 169 8 0 95 -27 194 -60
99 -33 190 -60 203 -60 13 0 35 6 50 14 33 18 585 572 601 603 6 12 11 48 11
79 l0 58 159 160 c88 89 165 174 170 189 6 16 11 79 11 140 0 88 -4 121 -19
152 -23 48 -373 399 -414 414 -16 6 -85 11 -155 11 -107 0 -132 -3 -157 -19z
m484 -236 l196 -195 3 -95 c6 -157 9 -151 -151 -312 -77 -78 -144 -140 -149
-137 -4 3 -8 25 -8 50 0 32 -4 44 -15 44 -13 0 -15 -22 -15 -137 l0 -137 -292
-293 c-161 -161 -299 -293 -308 -293 -24 0 -380 121 -380 129 0 4 15 21 33 39
l33 32 89 -30 c99 -33 115 -36 115 -17 0 7 -36 25 -85 41 -47 15 -85 30 -85
34 0 4 38 45 85 92 74 73 104 120 77 120 -4 0 -156 -148 -337 -330 -264 -264
-335 -330 -356 -330 -30 0 -136 35 -155 51 -10 8 -14 35 -14 82 l0 71 330 331
c213 214 330 338 330 351 0 26 -18 44 -45 44 -11 0 -182 -54 -380 -120 -198
-66 -371 -120 -385 -120 -30 0 -148 38 -168 53 -9 7 -12 37 -10 106 l3 96 513
172 c283 94 522 179 533 189 15 14 19 31 19 86 0 53 -3 68 -15 68 -11 0 -15
-16 -17 -67 l-3 -68 -210 -72 c-115 -39 -213 -72 -217 -72 -5 -1 -8 31 -8 71
l0 72 160 160 159 161 273 5 c234 4 273 7 273 20 0 11 -14 16 -48 20 l-48 5
114 113 114 112 128 0 129 0 195 -195z m-1095 -832 c11 -11 -96 -113 -119
-113 -27 0 -37 -10 -25 -25 6 -8 -18 -38 -79 -99 -80 -79 -91 -87 -110 -77
-19 10 -21 20 -21 86 0 109 17 125 196 186 158 54 148 51 158 42z"/>
<path d="M1665 2356 c-16 -8 -93 -75 -169 -150 l-139 -136 -320 0 c-218 0
-333 -4 -361 -12 -33 -9 -76 -46 -210 -177 -93 -91 -182 -186 -197 -210 -27
-41 -29 -53 -29 -135 0 -107 18 -147 73 -165 30 -10 35 -17 41 -50 4 -27 16
-48 41 -70 l35 -30 0 -95 c0 -104 10 -137 46 -157 22 -11 24 -19 24 -83 0 -74
16 -119 49 -142 12 -9 20 -31 24 -68 11 -106 -7 -97 477 -256 229 -75 312 -99
335 -94 22 4 115 91 358 333 181 179 334 335 340 346 6 11 14 53 18 93 l6 74
171 171 c107 108 177 186 187 209 20 50 21 284 1 331 -18 41 -441 462 -479
476 -42 16 -285 13 -322 -3z m308 -67 c31 -16 405 -389 423 -421 10 -20 14
-64 14 -159 l0 -133 -162 -163 c-89 -90 -166 -163 -170 -163 -4 0 -8 24 -10
53 -2 28 -7 51 -13 50 -6 -2 -13 -66 -16 -150 -4 -82 -7 -150 -8 -153 -3 -10
-637 -642 -654 -651 -22 -12 -705 212 -724 238 -13 17 -18 85 -7 95 3 3 133
-37 290 -89 170 -57 292 -92 302 -88 16 6 16 7 0 19 -9 7 -158 59 -330 116
-172 57 -319 108 -325 113 -14 10 -19 157 -6 157 5 0 151 -48 326 -106 190
-63 325 -103 335 -99 16 6 16 7 0 19 -10 7 -178 66 -373 131 -244 81 -359 124
-366 136 -10 19 -13 182 -3 191 3 3 167 -48 365 -114 332 -111 420 -132 378
-94 -8 7 -180 68 -384 136 -203 67 -385 128 -403 135 l-32 14 0 137 0 137 97
98 c53 54 104 101 113 104 9 3 112 -26 227 -65 116 -38 216 -70 223 -70 6 0
10 7 8 17 -4 21 -432 166 -463 157 -25 -8 -212 -190 -231 -226 -8 -17 -14 -56
-14 -103 0 -74 -1 -76 -22 -70 -38 11 -58 43 -58 94 0 93 8 105 203 299 l183
182 427 0 c302 0 428 3 433 11 10 17 -16 29 -63 29 -24 0 -43 3 -43 8 0 11
232 239 250 245 29 10 261 7 283 -4z"/>
<path d="M1215 1829 c-2 -8 -6 -80 -7 -161 l-3 -147 -60 -61 c-41 -41 -67 -60
-84 -60 -14 0 -107 27 -207 60 -100 33 -187 60 -194 60 -6 0 -10 -7 -8 -16 3
-19 362 -143 411 -144 22 0 45 16 94 63 36 34 72 76 79 94 20 48 20 296 -1
313 -12 10 -16 10 -20 -1z"/>
<path d="M4450 2319 c-13 -6 -57 -41 -96 -80 l-72 -69 -286 0 c-222 0 -294 -3
-319 -14 -40 -17 -352 -331 -366 -369 -6 -16 -11 -63 -11 -105 0 -98 19 -132
85 -158 l47 -17 -365 -366 c-201 -201 -373 -381 -382 -400 -13 -26 -16 -54
-13 -122 3 -79 6 -91 28 -113 28 -27 168 -76 218 -76 22 0 32 -5 32 -15 0 -33
55 -73 135 -99 116 -38 136 -35 197 22 38 35 52 43 56 32 18 -53 159 -116 226
-103 17 4 55 32 94 69 35 35 68 64 72 64 4 0 13 -6 19 -14 16 -19 96 -46 138
-46 19 0 46 6 61 14 33 17 884 871 901 904 7 12 15 52 18 90 l6 67 155 157
c86 86 161 167 168 180 9 15 13 66 14 156 0 158 -8 182 -72 206 -78 28 -649
216 -656 215 -4 0 -18 -5 -32 -10z m366 -164 c208 -68 324 -111 328 -121 3 -9
6 -68 6 -132 l0 -116 -152 -153 c-84 -84 -156 -153 -160 -153 -4 0 -8 23 -8
51 0 36 -4 49 -12 47 -9 -3 -14 -45 -18 -146 l-5 -141 -60 -61 c-506 -513
-828 -830 -845 -830 -11 0 -38 7 -60 16 -45 18 -56 42 -47 102 5 30 33 63 177
207 160 160 188 195 157 195 -21 0 -345 -332 -361 -370 -8 -19 -58 -78 -110
-130 l-96 -94 -47 12 c-97 26 -98 27 -101 121 l-3 84 226 226 c124 125 225
232 225 239 0 7 -6 12 -13 12 -7 0 -115 -103 -240 -228 -162 -163 -227 -235
-227 -251 0 -23 -124 -162 -163 -183 -21 -11 -168 34 -187 57 -8 10 -11 41 -8
90 l3 75 263 263 c144 144 262 265 262 270 0 32 -69 -27 -293 -251 -200 -201
-258 -265 -263 -290 -6 -29 -53 -82 -73 -82 -16 0 -154 50 -167 61 -19 16 -18
132 0 167 8 15 260 272 560 572 300 300 546 551 546 557 0 31 -34 4 -181 -143
l-157 -156 -66 22 c-37 12 -71 30 -76 40 -15 27 -12 116 4 153 7 18 85 103
173 190 l159 157 293 0 c233 0 297 3 319 14 15 8 54 42 87 75 33 34 66 61 74
61 8 0 160 -47 337 -105z"/>
</g>
</svg>
